<mxfile host="app.diagrams.net" agent="Mozilla/5.0 (Windows NT 10.0; Win64; x64) AppleWebKit/537.36 (KHTML, like Gecko) Chrome/133.0.0.0 Safari/537.36" version="25.0.3">
  <diagram name="第 1 页" id="20uUHUSDaYDR61VVI7ob">
    <mxGraphModel dx="1638" dy="754" grid="1" gridSize="10" guides="1" tooltips="1" connect="1" arrows="1" fold="1" page="1" pageScale="1" pageWidth="827" pageHeight="1169" math="0" shadow="0">
      <root>
        <mxCell id="0" />
        <mxCell id="1" parent="0" />
        <mxCell id="2W2__jB5LmR211DFTlv5-8" style="edgeStyle=orthogonalEdgeStyle;rounded=0;orthogonalLoop=1;jettySize=auto;html=1;exitX=0.5;exitY=1;exitDx=0;exitDy=0;fontSize=15;" edge="1" parent="1" source="2W2__jB5LmR211DFTlv5-1" target="2W2__jB5LmR211DFTlv5-7">
          <mxGeometry relative="1" as="geometry" />
        </mxCell>
        <mxCell id="2W2__jB5LmR211DFTlv5-1" value="管理员登录系统" style="rounded=0;whiteSpace=wrap;html=1;fontSize=15;" vertex="1" parent="1">
          <mxGeometry x="-115" y="140" width="120" height="60" as="geometry" />
        </mxCell>
        <mxCell id="2W2__jB5LmR211DFTlv5-6" style="edgeStyle=orthogonalEdgeStyle;rounded=0;orthogonalLoop=1;jettySize=auto;html=1;exitX=0.5;exitY=1;exitDx=0;exitDy=0;exitPerimeter=0;entryX=0.5;entryY=0;entryDx=0;entryDy=0;fontSize=15;" edge="1" parent="1" source="2W2__jB5LmR211DFTlv5-5" target="2W2__jB5LmR211DFTlv5-1">
          <mxGeometry relative="1" as="geometry" />
        </mxCell>
        <mxCell id="2W2__jB5LmR211DFTlv5-5" value="开始" style="strokeWidth=1;html=1;shape=mxgraph.flowchart.terminator;whiteSpace=wrap;fontSize=15;" vertex="1" parent="1">
          <mxGeometry x="-105" y="50" width="100" height="60" as="geometry" />
        </mxCell>
        <mxCell id="2W2__jB5LmR211DFTlv5-13" style="edgeStyle=orthogonalEdgeStyle;rounded=0;orthogonalLoop=1;jettySize=auto;html=1;exitX=0.5;exitY=1;exitDx=0;exitDy=0;fontSize=15;" edge="1" parent="1" source="2W2__jB5LmR211DFTlv5-7" target="2W2__jB5LmR211DFTlv5-11">
          <mxGeometry relative="1" as="geometry" />
        </mxCell>
        <mxCell id="2W2__jB5LmR211DFTlv5-7" value="点击“信息管理”列表" style="rounded=0;whiteSpace=wrap;html=1;fontSize=15;" vertex="1" parent="1">
          <mxGeometry x="-115" y="230" width="120" height="60" as="geometry" />
        </mxCell>
        <mxCell id="2W2__jB5LmR211DFTlv5-9" value="问卷信息、题目信息、题目内容、答题信息、公告信息、操作日志预览" style="rounded=0;whiteSpace=wrap;html=1;fontSize=15;" vertex="1" parent="1">
          <mxGeometry x="-115" y="470" width="125" height="90" as="geometry" />
        </mxCell>
        <mxCell id="2W2__jB5LmR211DFTlv5-14" style="edgeStyle=orthogonalEdgeStyle;rounded=0;orthogonalLoop=1;jettySize=auto;html=1;exitX=0.5;exitY=1;exitDx=0;exitDy=0;exitPerimeter=0;entryX=0.5;entryY=0;entryDx=0;entryDy=0;fontSize=15;" edge="1" parent="1" source="2W2__jB5LmR211DFTlv5-11" target="2W2__jB5LmR211DFTlv5-9">
          <mxGeometry relative="1" as="geometry" />
        </mxCell>
        <mxCell id="2W2__jB5LmR211DFTlv5-15" value="是" style="edgeLabel;html=1;align=center;verticalAlign=middle;resizable=0;points=[];fontSize=15;" vertex="1" connectable="0" parent="2W2__jB5LmR211DFTlv5-14">
          <mxGeometry x="-0.12" y="-1" relative="1" as="geometry">
            <mxPoint as="offset" />
          </mxGeometry>
        </mxCell>
        <mxCell id="2W2__jB5LmR211DFTlv5-16" style="edgeStyle=orthogonalEdgeStyle;rounded=0;orthogonalLoop=1;jettySize=auto;html=1;exitX=1;exitY=0.5;exitDx=0;exitDy=0;exitPerimeter=0;fontSize=15;" edge="1" parent="1" source="2W2__jB5LmR211DFTlv5-11">
          <mxGeometry relative="1" as="geometry">
            <mxPoint x="65" y="370" as="targetPoint" />
          </mxGeometry>
        </mxCell>
        <mxCell id="2W2__jB5LmR211DFTlv5-17" value="否" style="edgeLabel;html=1;align=center;verticalAlign=middle;resizable=0;points=[];fontSize=15;" vertex="1" connectable="0" parent="2W2__jB5LmR211DFTlv5-16">
          <mxGeometry x="-0.2528" relative="1" as="geometry">
            <mxPoint as="offset" />
          </mxGeometry>
        </mxCell>
        <mxCell id="2W2__jB5LmR211DFTlv5-11" value="是否预览信息管理内容" style="strokeWidth=1;html=1;shape=mxgraph.flowchart.decision;whiteSpace=wrap;fontSize=15;" vertex="1" parent="1">
          <mxGeometry x="-130" y="320" width="150" height="100" as="geometry" />
        </mxCell>
        <mxCell id="2W2__jB5LmR211DFTlv5-20" style="edgeStyle=orthogonalEdgeStyle;rounded=0;orthogonalLoop=1;jettySize=auto;html=1;exitX=0.5;exitY=0;exitDx=0;exitDy=0;entryX=0.5;entryY=1;entryDx=0;entryDy=0;fontSize=15;" edge="1" parent="1" source="2W2__jB5LmR211DFTlv5-18" target="2W2__jB5LmR211DFTlv5-19">
          <mxGeometry relative="1" as="geometry" />
        </mxCell>
        <mxCell id="2W2__jB5LmR211DFTlv5-18" value="点击“问卷信息”列表或其他内容列表" style="rounded=0;whiteSpace=wrap;html=1;fontSize=15;" vertex="1" parent="1">
          <mxGeometry x="70" y="340" width="120" height="60" as="geometry" />
        </mxCell>
        <mxCell id="2W2__jB5LmR211DFTlv5-35" style="edgeStyle=orthogonalEdgeStyle;rounded=0;orthogonalLoop=1;jettySize=auto;html=1;exitX=0.5;exitY=0;exitDx=0;exitDy=0;entryX=0.5;entryY=1;entryDx=0;entryDy=0;" edge="1" parent="1" source="2W2__jB5LmR211DFTlv5-19" target="2W2__jB5LmR211DFTlv5-22">
          <mxGeometry relative="1" as="geometry" />
        </mxCell>
        <mxCell id="2W2__jB5LmR211DFTlv5-19" value="查看所点击的列表内容" style="rounded=0;whiteSpace=wrap;html=1;fontSize=15;" vertex="1" parent="1">
          <mxGeometry x="70" y="260" width="120" height="60" as="geometry" />
        </mxCell>
        <mxCell id="2W2__jB5LmR211DFTlv5-28" style="edgeStyle=orthogonalEdgeStyle;rounded=0;orthogonalLoop=1;jettySize=auto;html=1;exitX=1;exitY=0.5;exitDx=0;exitDy=0;entryX=0;entryY=0.5;entryDx=0;entryDy=0;fontSize=15;" edge="1" parent="1" source="2W2__jB5LmR211DFTlv5-21" target="2W2__jB5LmR211DFTlv5-27">
          <mxGeometry relative="1" as="geometry" />
        </mxCell>
        <mxCell id="2W2__jB5LmR211DFTlv5-21" value="点击相应编辑或修改、删除按钮" style="rounded=0;whiteSpace=wrap;html=1;fontSize=15;" vertex="1" parent="1">
          <mxGeometry x="75" y="100" width="120" height="60" as="geometry" />
        </mxCell>
        <mxCell id="2W2__jB5LmR211DFTlv5-26" style="edgeStyle=orthogonalEdgeStyle;rounded=0;orthogonalLoop=1;jettySize=auto;html=1;exitX=0.5;exitY=0;exitDx=0;exitDy=0;entryX=0.5;entryY=1;entryDx=0;entryDy=0;fontSize=15;" edge="1" parent="1" source="2W2__jB5LmR211DFTlv5-22" target="2W2__jB5LmR211DFTlv5-21">
          <mxGeometry relative="1" as="geometry" />
        </mxCell>
        <mxCell id="2W2__jB5LmR211DFTlv5-22" value="选择其中一个按钮" style="shape=parallelogram;html=1;strokeWidth=1;perimeter=parallelogramPerimeter;whiteSpace=wrap;rounded=1;arcSize=12;size=0.23;fontSize=15;" vertex="1" parent="1">
          <mxGeometry x="60" y="180" width="150" height="60" as="geometry" />
        </mxCell>
        <mxCell id="2W2__jB5LmR211DFTlv5-30" style="edgeStyle=orthogonalEdgeStyle;rounded=0;orthogonalLoop=1;jettySize=auto;html=1;exitX=0.5;exitY=1;exitDx=0;exitDy=0;entryX=0.5;entryY=0;entryDx=0;entryDy=0;fontSize=15;" edge="1" parent="1" source="2W2__jB5LmR211DFTlv5-27" target="2W2__jB5LmR211DFTlv5-29">
          <mxGeometry relative="1" as="geometry" />
        </mxCell>
        <mxCell id="2W2__jB5LmR211DFTlv5-27" value="所操作内容提示成功消息" style="rounded=0;whiteSpace=wrap;html=1;fontSize=15;" vertex="1" parent="1">
          <mxGeometry x="230" y="100" width="120" height="60" as="geometry" />
        </mxCell>
        <mxCell id="2W2__jB5LmR211DFTlv5-34" style="edgeStyle=orthogonalEdgeStyle;rounded=0;orthogonalLoop=1;jettySize=auto;html=1;exitX=0.5;exitY=1;exitDx=0;exitDy=0;fontSize=15;" edge="1" parent="1" source="2W2__jB5LmR211DFTlv5-29" target="2W2__jB5LmR211DFTlv5-33">
          <mxGeometry relative="1" as="geometry" />
        </mxCell>
        <mxCell id="2W2__jB5LmR211DFTlv5-29" value="管理员查看修改后的信息" style="rounded=0;whiteSpace=wrap;html=1;fontSize=15;" vertex="1" parent="1">
          <mxGeometry x="230" y="190" width="120" height="60" as="geometry" />
        </mxCell>
        <mxCell id="2W2__jB5LmR211DFTlv5-33" value="结束" style="strokeWidth=1;html=1;shape=mxgraph.flowchart.terminator;whiteSpace=wrap;fontSize=15;" vertex="1" parent="1">
          <mxGeometry x="240" y="280" width="100" height="60" as="geometry" />
        </mxCell>
      </root>
    </mxGraphModel>
  </diagram>
</mxfile>
